<?xml version="1.0" encoding="UTF-8"?>
<!DOCTYPE svg PUBLIC "-//W3C//DTD SVG 1.1//EN" "http://www.w3.org/Graphics/SVG/1.1/DTD/svg11.dtd">
<svg version="1.1" xmlns="http://www.w3.org/2000/svg" xmlns:xlink="http://www.w3.org/1999/xlink" x="0" y="0" width="290" height="323" viewBox="0, 0, 579, 646">
  <defs>
    <clipPath id="Clip_1">
      <path d="M578.284,0.093 L578.284,586.097 L464.681,586.097 C420.877,623.445 364.078,646 302.004,646 C239.925,646 183.126,623.445 139.322,586.097 L0.06,586.097 L0.06,0.093 L578.284,0.093 z"/>
    </clipPath>
  </defs>
  <g id="Layer_1">
    <g clip-path="url(#Clip_1)">
      <path d="M552.892,395.113 C552.892,533.674 440.565,646 302.004,646 C163.438,646 51.111,533.674 51.111,395.113 C51.111,256.552 163.438,144.227 302.004,144.227 C440.565,144.227 552.892,256.552 552.892,395.113" fill="#FFF799"/>
      <path d="M461.154,517.697 L465.154,453.697 C465.154,453.697 446.154,534.697 416.154,543.697 C386.154,552.697 171.154,520.697 171.154,520.697 C171.154,520.697 56.154,261.697 129.567,129.64 C158.882,76.908 508.669,100.667 526.164,192.599 C558.154,360.697 461.154,517.697 461.154,517.697" fill="#4F2A25"/>
      <path d="M408.121,649.244 L451.893,649.244 C451.893,649.244 441.965,521.168 437.975,503.875 C435.293,492.281 424.596,492.351 424.596,492.351 L355.607,503.797 L408.121,649.244" fill="#C6C6BB"/>
      <path d="M404.721,649.244 L227.926,649.244 L226.51,492.967 L406.137,492.967 L404.721,649.244" fill="#FBDFC9"/>
      <path d="M355.212,664.418 L269.166,664.418 L269.166,541.162 C269.166,541.162 292.596,548.697 316.375,548.697 C340.154,548.697 355.212,541.162 355.212,541.162 L355.212,664.418" fill="#FFFFFE"/>
      <path d="M123.385,464.459 L110.947,441.967 C123.502,428.496 126.502,415.896 122.443,392.263 C121.275,385.48 101.811,347.947 101.811,347.947 C101.811,347.947 77.982,335.248 52.18,355.066 C28.471,373.269 29.631,399.935 31.924,429.728 C33.373,448.486 49.049,466.24 69.81,464.299 L83.264,486.791 L123.385,464.459" fill="#FBDFC9"/>
      <path d="M127.734,465.349 L79.252,494.886 L65.643,473.679 L114.125,444.142 L127.734,465.349" fill="#FFFFFE"/>
      <path d="M46.893,407.685 C49.598,418.76 53.531,423.847 43.596,428.361 C36.154,431.746 18.885,423.041 14.506,407.685 C11.494,397.127 22.35,387.81 31.084,387.81 C39.818,387.81 44.287,397.019 46.893,407.685" fill="#FBDFC9"/>
      <path d="M63.871,391.248 C63.871,405.603 68.588,414.654 55.6,420.56 C45.857,424.986 27.248,411.334 21.525,391.248 C17.584,377.447 31.779,365.263 43.201,365.263 C54.619,365.263 63.871,376.9 63.871,391.248" fill="#FBDFC9"/>
      <path d="M84.775,391.445 C84.33,398.904 84.693,405.185 75.4,409.228 C64.467,413.99 43.555,398.299 37.123,376.693 C32.701,361.847 48.641,348.715 61.467,348.715 C66.891,348.715 71.877,350.959 75.826,354.717" fill="#FBDFC9"/>
      <path d="M101.811,347.947 C101.811,347.947 80.475,305.954 71.096,290.122 C61.697,274.259 38.264,292.294 45.682,309.064 C55.572,331.418 80.15,369.713 80.15,369.713" fill="#FBDFC9"/>
      <path d="M73.971,427.431 C69.646,408.674 84.834,391.447 84.834,391.447 C84.834,391.447 64.639,387.873 59.779,380.869 C53.006,371.095 62.287,361.9 62.287,361.9 C62.287,361.9 99.01,364.814 109.588,372.914 C118.701,379.892 122.443,392.263 122.443,392.263" fill="#FBDFC9"/>
      <path d="M424.596,492.351 L368.24,475.838 L313.735,610.785 L263.594,478.49 L211.41,487.816 C211.41,487.816 197.154,485.547 188.363,503.279 L153.801,503.418 L121.606,453.965 L63.655,488.049 C63.655,488.049 100.119,551.65 115.357,562.82 C127.61,571.802 204.154,575.877 204.154,575.877 L212.706,649.244 L313.056,656.937 L414.967,649.244 L419.781,540.627" fill="#C6C6BB"/>
      <path d="M313.717,610.785 L381.83,529.529 L362.07,511.691 L382.027,502.916 L374.791,477.408 L361.248,470.843 L313.717,610.785" fill="#C6C6BB"/>
      <path d="M320.082,621.818 L243.827,530.801 L263.587,512.965 L243.63,504.187 L250.866,478.681 L264.409,472.117 L320.082,621.818" fill="#C6C6BB"/>
      <path d="M167.568,306.087 C167.568,323.51 154.533,337.629 138.447,337.629 C122.361,337.629 109.326,320.781 109.326,303.364 C109.326,285.947 122.361,274.55 138.447,274.55 C154.533,274.55 167.568,288.671 167.568,306.087" fill="#FBDFC9"/>
      <path d="M465.182,306.087 C465.182,323.51 478.217,337.629 494.303,337.629 C510.389,337.629 523.424,320.781 523.424,303.364 C523.424,285.947 510.389,274.55 494.303,274.55 C478.217,274.55 465.182,288.671 465.182,306.087" fill="#FBDFC9"/>
      <path d="M494.314,308.814 C481.373,193.181 414.646,42.413 316.375,42.413 C218.115,42.413 151.389,193.181 138.447,308.814 C125.891,420.99 218.115,498.81 316.375,498.81 C414.646,498.81 506.873,420.99 494.314,308.814" fill="#FBDFC9"/>
      <path d="M275.271,309.978 C275.271,333.392 256.287,352.379 232.869,352.379 C209.455,352.379 190.471,333.392 190.471,309.978 C190.471,286.56 209.455,267.579 232.869,267.579 C256.287,267.579 275.271,286.56 275.271,309.978" fill="#FFFFFE"/>
      <path d="M321.34,422.203 C319.736,421.918 318.076,425.152 316.375,425.152 C314.674,425.152 313.014,421.918 311.41,422.203 C300.185,424.207 291.74,437.705 291.74,437.705 C291.74,437.705 302.769,449.488 316.375,449.488 C329.981,449.488 341.01,437.705 341.01,437.705 C341.01,437.705 332.565,424.207 321.34,422.203" fill="#EEA5A4"/>
      <path d="M235.279,386.658 C233.551,396.453 216.285,401.59 196.697,398.136 C177.119,394.681 162.641,383.947 164.369,374.158 C166.1,364.363 183.369,359.226 202.947,362.681 C222.533,366.131 237.01,376.867 235.279,386.658" fill="#F4C4B4"/>
      <path d="M401.982,386.658 C403.713,396.453 420.979,401.59 440.563,398.136 C460.146,394.681 474.619,383.947 472.893,374.158 C471.162,364.363 453.891,359.226 434.314,362.681 C414.729,366.131 400.252,376.867 401.982,386.658" fill="#F4C4B4"/>
      <path d="M357.488,309.978 C357.488,333.392 376.473,352.379 399.891,352.379 C423.305,352.379 442.289,333.392 442.289,309.978 C442.289,286.56 423.305,267.579 399.891,267.579 C376.473,267.579 357.488,286.56 357.488,309.978" fill="#FFFFFE"/>
      <path d="M203.154,301.697 L232.869,309.979 L209.154,323.697 L203.154,301.697" fill="#FFFFFE"/>
      <path d="M370.176,301.697 L399.891,309.979 L376.176,323.697 L370.176,301.697" fill="#FFFFFE"/>
      <path d="M124.708,258.473 C129.921,291.739 139.154,318.697 139.154,318.697 L157.641,240.781 L201.154,121.697 C201.154,121.697 245.154,210.697 324.154,241.697 C305.859,213.6 296.532,188.072 292.263,173.745 C382.154,237.697 480.114,269.544 480.114,269.544 L494.303,337.629 L526.164,192.599 C514.979,141.173 454.083,-15.889 276.789,19.754 C222.479,30.673 190.984,75.516 190.984,75.516 C190.984,75.516 156.574,73.384 129.567,129.64" fill="#4F2A25"/>
      <path d="M424.453,356.607 C415.669,358.691 406.769,359.746 397.999,359.746 C367.217,359.746 342.421,346.695 336.295,327.271 C332.409,314.955 336.241,301.538 347.086,289.493 C358.17,277.183 375.175,267.818 394.966,263.126 C403.749,261.044 412.65,259.989 421.421,259.989 C452.201,259.989 476.998,273.038 483.123,292.462 C491.252,318.236 464.934,347.011 424.453,356.607 z M294.784,327.271 C288.658,346.695 263.862,359.746 233.08,359.746 C224.311,359.746 215.41,358.691 206.626,356.607 C166.146,347.011 139.827,318.236 147.956,292.462 C154.081,273.038 178.878,259.989 209.658,259.989 C218.429,259.989 227.33,261.044 236.113,263.126 C255.904,267.818 272.909,277.183 283.993,289.493 C294.838,301.538 298.67,314.955 294.784,327.271 z M496.382,274.675 C493.638,273.247 482.361,273.595 482.361,273.595 C470.339,258.931 447.833,249.779 421.421,249.779 C412.015,249.779 402.48,250.931 393.084,253.206 C371.818,258.354 354.641,268.109 341.462,280.633 C334.642,287.114 325.363,291.781 315.539,291.781 C305.716,291.781 296.438,287.114 289.617,280.633 C276.438,268.109 259.261,258.354 237.995,253.206 C228.599,250.931 219.064,249.779 209.658,249.779 C183.246,249.779 160.74,258.931 148.718,273.595 C148.718,273.595 137.441,273.247 134.697,274.675 C131.953,276.101 129.922,287.628 129.938,290.114 C129.953,292.601 137.938,298.614 137.938,298.614 C140.438,329.615 164.637,351.136 204.747,360.845 C214.141,363.121 223.674,364.273 233.08,364.273 C267.118,364.273 294.682,349.078 301.666,326.463 C302.763,322.914 304.629,308.867 306.677,308.019 C308.726,307.17 311.586,306.322 314.831,306.322 C315.067,306.322 315.303,306.335 315.539,306.344 L315.54,306.344 C315.776,306.335 316.012,306.322 316.248,306.322 C319.493,306.322 322.354,307.17 324.402,308.019 C326.45,308.867 328.316,322.914 329.413,326.463 C336.397,349.078 363.961,364.273 397.999,364.273 C407.405,364.273 416.938,363.121 426.332,360.845 C466.442,351.136 490.642,329.615 493.142,298.614 C493.142,298.614 501.126,292.601 501.142,290.114 C501.157,287.628 499.126,276.101 496.382,274.675" fill="#C62534"/>
    </g>
    <path d="M440.41,503.31 C437.612,491.215 427.268,489.988 425.003,489.865 L399.173,482.297 C420.715,471.939 440.147,457.648 455.831,440.111 C480.869,412.113 495.215,377.326 497.583,339.908 C513.02,337.863 525.924,321.665 525.924,303.364 C525.924,291.165 519.906,281.223 510.398,276.011 L511.363,271.621 C511.66,270.273 510.807,268.94 509.458,268.644 C508.112,268.348 506.776,269.2 506.48,270.549 L502.516,288.597 C502.054,284.652 500.313,275.027 497.074,273.344 C495.434,272.49 491.47,272.058 485.294,272.058 C484.439,272.058 483.719,272.067 483.195,272.075 L482.266,267.614 L480.887,267.166 C480.771,267.128 479.27,266.634 476.591,265.696 C465.929,256.8 450.947,250.93 433.966,248.989 C397.184,233.291 343.987,207.476 293.712,171.708 L287.792,167.496 L289.867,174.459 C293.491,186.621 301.77,210.049 317.802,236.309 C245.143,203.604 203.817,121.442 203.396,120.588 L200.809,115.36 L155.293,239.922 L155.242,240.061 L147.647,272.072 C147.149,272.065 146.516,272.058 145.785,272.058 C139.609,272.058 135.646,272.49 134.006,273.344 C132.749,273.997 131.719,275.851 130.899,278.101 C129.561,271.831 128.276,265.097 127.178,258.086 C126.99,256.884 125.978,256.018 124.803,255.976 C124.645,255.971 124.483,255.978 124.321,256.003 C122.957,256.217 122.024,257.496 122.238,258.86 C123.096,264.327 124.064,269.631 125.085,274.687 C118.538,277.471 113.355,282.325 110.21,288.586 C104.646,234.812 107.234,178.599 129.352,135.378 L129.474,132.135 C130.438,132.17 131.377,131.647 131.821,130.722 C157.67,76.879 190.519,77.99 190.83,78.011 L192.226,78.097 L193.029,76.953 C193.34,76.513 224.632,32.79 277.282,22.205 C352.498,7.082 414.628,24.926 461.946,75.239 C506.684,122.807 521.255,181.789 523.721,193.13 C523.936,194.114 524.705,194.831 525.629,195.034 L524.762,198.984 C539.26,283.115 521.266,363.843 503.328,417.26 C489.033,459.834 472.569,492.142 464.318,507.142 L467.649,453.853 C467.73,452.556 466.805,451.414 465.52,451.224 C464.226,451.033 463.018,451.861 462.721,453.125 C462.601,453.636 454.823,486.238 441.808,511.814 C441.293,508.019 440.821,505.093 440.41,503.31 z M316.375,496.31 C264.729,496.31 213.995,474.056 180.66,436.781 C153.52,406.433 139.331,367.842 139.841,326.633 L141.662,318.956 C151.123,339.552 172.694,354.631 204.395,362.304 C213.9,364.605 223.552,365.773 233.08,365.773 C267.781,365.773 295.92,350.152 303.1,326.906 C303.471,325.705 303.898,323.51 304.394,320.97 C305.107,317.308 306.425,310.55 307.396,309.345 C309.145,308.636 311.811,307.822 314.831,307.822 C314.983,307.822 315.136,307.828 315.288,307.835 L315.484,307.843 C315.521,307.845 315.559,307.845 315.596,307.843 L315.79,307.835 C318.984,307.691 321.847,308.601 323.683,309.345 C324.653,310.55 325.972,317.308 326.686,320.97 C327.181,323.51 327.608,325.705 327.979,326.904 C335.159,350.152 363.298,365.773 397.999,365.773 C407.527,365.773 417.179,364.605 426.685,362.304 C457.218,354.912 478.357,340.652 488.327,321.208 L492.48,341.136 C489.885,376.853 476.033,410.021 452.104,436.777 C418.768,474.054 368.028,496.31 316.375,496.31 z M380.228,502.068 L361.467,510.318 C361.001,510.523 360.671,510.949 360.59,511.451 C360.509,511.955 360.688,512.463 361.065,512.804 L379.752,529.674 L317.714,603.681 L353.769,497.527 C361.703,495.924 369.519,493.822 377.158,491.25 L380.228,502.068 z M316.375,547.197 C308.32,547.197 300.268,546.31 293.169,545.148 L275.156,496.713 C288.631,499.722 302.47,501.31 316.375,501.31 C327.809,501.31 339.197,500.242 350.375,498.191 L334.236,545.707 C329.075,546.582 323.072,547.197 316.375,547.197 z M314.444,602.355 L294.368,548.373 C301.188,549.424 308.777,550.197 316.375,550.197 C322.603,550.197 328.214,549.689 333.139,548.941 L317.914,593.763 L314.444,602.355 z M245.905,530.945 L264.592,514.078 C264.97,513.736 265.149,513.228 265.068,512.724 C264.987,512.222 264.657,511.797 264.191,511.592 L245.43,503.34 L249.476,489.08 C256.709,491.789 264.119,494.074 271.656,495.906 L315.643,614.183 L245.905,530.945 z M211.336,485.289 C208.655,485.025 195.561,484.636 186.84,500.785 L165.669,500.869 C155.768,475.885 138.37,428.523 125.262,374.103 C121.813,359.791 118.536,344.406 115.765,328.416 C120.871,334.64 127.728,338.926 135.179,339.908 C137.549,377.33 151.895,412.117 176.934,440.115 C192.256,457.248 211.156,471.283 232.106,481.578 L211.336,485.289 z M71.735,480.396 L67.734,474.162 L113.654,446.185 L118.105,453.123 L71.735,480.396 z M61.467,351.215 C63.071,351.215 64.643,351.451 66.168,351.886 C68.018,354.957 69.759,357.806 71.31,360.32 C66.392,359.726 62.935,359.443 62.485,359.408 C61.758,359.355 61.045,359.613 60.527,360.123 C56.803,363.814 51.422,373.199 57.726,382.293 C61.77,388.125 73.915,391.597 80.404,393.086 C78.213,396.168 75.098,401.205 72.99,407.365 C70.436,407.91 67.182,407.345 63.617,405.689 C55.09,401.722 43.912,390.734 39.519,375.978 C37.65,369.705 40.138,364.525 42.553,361.287 C46.975,355.355 54.752,351.215 61.467,351.215 z M68.945,291.397 C78.176,306.978 99.369,348.66 99.582,349.08 C99.705,349.322 99.871,349.529 100.055,349.711 L99.941,349.826 C99.952,349.83 99.966,349.836 99.976,349.84 C103.118,355.914 106.868,363.343 110.271,370.342 C105.198,366.931 96.047,364.461 87.086,362.742 C83.875,362.127 80.693,361.609 77.732,361.176 C70.178,349.033 55.108,324.191 47.968,308.052 C44.391,299.964 49.302,291.287 55.904,287.887 C58.429,286.586 64.756,284.323 68.945,291.397 z M33.918,370.465 C33.784,372.783 34.045,375.117 34.727,377.406 C39.587,393.73 51.68,405.652 61.509,410.222 C61.644,410.285 61.776,410.34 61.91,410.4 C61.233,413.732 59.278,416.14 54.565,418.283 C53.673,418.689 52.635,418.894 51.48,418.894 C42.286,418.894 28.55,406.779 23.93,390.56 C22.213,384.552 24.607,379.638 26.919,376.576 C28.796,374.088 31.249,371.992 33.918,370.465 z M19.103,396.812 C19.462,396.338 19.852,395.881 20.268,395.445 C25.594,409.924 37.097,420.433 46.759,423.179 C46.027,424.224 44.71,425.109 42.561,426.086 C41.828,426.418 40.905,426.588 39.817,426.588 C32.585,426.588 20.371,419.135 16.91,407 C15.665,402.633 17.415,399.051 19.103,396.812 z M71.147,461.662 L69.578,461.808 C68.62,461.898 67.653,461.943 66.706,461.943 C48.807,461.943 36.315,446.019 34.544,430.804 C36.366,431.314 38.146,431.588 39.817,431.588 C41.624,431.588 43.244,431.267 44.63,430.636 C48.945,428.676 51.083,426.402 51.956,423.873 C53.644,423.816 55.22,423.478 56.635,422.836 C62.916,419.98 65.607,416.301 66.637,412.041 C68.151,412.404 69.612,412.59 71.002,412.59 C71.187,412.59 71.365,412.572 71.549,412.564 C70.532,417.349 70.29,422.592 71.535,427.992 C71.802,429.148 72.83,429.931 73.969,429.931 C74.154,429.931 74.344,429.91 74.532,429.867 C75.878,429.556 76.717,428.215 76.407,426.869 C76.326,426.517 76.264,426.166 76.197,425.816 C73.013,408.959 86.571,393.258 86.71,393.099 C87.307,392.422 87.492,391.474 87.194,390.621 C86.895,389.769 86.16,389.142 85.27,388.984 C77.855,387.67 64.936,383.916 61.834,379.445 C57.338,372.957 61.515,366.695 63.319,364.496 C67.499,364.863 73.905,365.595 80.656,366.697 C91.49,368.463 103.215,371.183 108.068,374.898 C116.408,381.285 120.016,392.873 120.051,392.986 C120.134,393.261 120.269,393.506 120.429,393.724 L120.181,393.904 C123.767,415.795 120.916,427.603 109.119,440.261 L107.882,441.588 L109.785,445.029 L74.175,466.724 L71.147,461.662 z M126.635,450.691 C125.978,449.681 125.065,448.931 124.036,448.478 L119.429,441.297 C124.448,434.902 127.601,428.402 129.1,420.883 C137.437,449 145.987,473.174 152.497,490.416 L126.635,450.691 z M135.917,298.95 C136.12,299.111 136.316,299.264 136.5,299.406 C136.59,300.393 136.704,301.371 136.838,302.341 C136.539,301.262 136.23,300.121 135.917,298.95 z M494.367,325.683 L491.744,313.095 C493.193,308.743 494.145,304.176 494.579,299.406 C496.617,297.836 499.967,295.06 501.633,292.614 L494.367,325.683 z M497.875,333.019 L509.258,281.204 C516.446,285.762 520.924,293.726 520.924,303.364 C520.924,318.866 510.481,332.615 497.826,334.814 C497.847,334.217 497.86,333.619 497.875,333.019 z M148.672,275.094 C149.156,275.118 149.583,274.906 149.878,274.546 C161.823,259.977 184.171,251.279 209.658,251.279 C218.95,251.279 228.365,252.417 237.643,254.664 C257.649,259.507 274.789,268.61 288.584,281.72 C296.314,289.067 306.14,293.281 315.539,293.281 C324.939,293.281 334.765,289.067 342.495,281.72 C356.29,268.61 373.43,259.507 393.438,254.664 C402.714,252.417 412.129,251.279 421.421,251.279 C446.909,251.279 469.257,259.977 481.201,274.546 C481.496,274.906 481.939,275.117 482.407,275.094 C482.418,275.094 483.605,275.058 485.294,275.058 C491.615,275.058 494.809,275.547 495.69,276.006 C497.388,276.888 499.661,286.975 499.643,290.081 C499.5,291.124 496.04,294.552 492.239,297.416 C491.896,297.674 491.681,298.067 491.646,298.493 C489.26,328.09 465.938,349.715 425.979,359.388 C416.703,361.635 407.29,362.773 397.999,362.773 C364.622,362.773 337.635,348.004 330.847,326.019 C330.522,324.972 330.089,322.75 329.63,320.396 C327.746,310.736 326.81,307.393 324.977,306.633 C322.981,305.807 319.848,304.822 316.248,304.822 C316.053,304.822 315.858,304.829 315.663,304.838 L315.539,304.843 L315.417,304.838 C315.222,304.829 315.026,304.822 314.831,304.822 C311.231,304.822 308.098,305.807 306.103,306.633 C304.27,307.393 303.333,310.736 301.449,320.396 C300.99,322.75 300.557,324.972 300.232,326.019 C293.444,348.004 266.458,362.773 233.08,362.773 C223.79,362.773 214.376,361.635 205.101,359.388 C165.141,349.715 141.819,328.09 139.433,298.493 C139.398,298.067 139.183,297.674 138.841,297.416 C135.039,294.552 131.58,291.124 131.438,290.105 C131.418,286.975 133.691,276.888 135.39,276.006 C136.271,275.547 139.464,275.058 145.785,275.058 C147.474,275.058 148.661,275.094 148.672,275.094 z M326.249,240.332 C310.65,216.377 301.642,194.177 296.888,180.046 C330.747,203.505 365.572,222.515 395.607,237.029 C394.854,237.21 394.098,237.399 393.338,237.605 C376.092,242.277 354.299,261.267 354.299,261.267 L406.391,242.148 C411.042,244.316 415.554,246.369 419.895,248.302 C410.861,248.419 401.732,249.569 392.731,251.748 C372.207,256.716 354.609,266.069 340.429,279.546 C333.25,286.367 324.178,290.281 315.539,290.281 C306.9,290.281 297.829,286.367 290.65,279.546 C276.47,266.069 258.873,256.716 238.349,251.748 C228.84,249.446 219.188,248.279 209.658,248.279 C187.44,248.279 167.472,254.744 154.25,265.9 L160.039,241.5 L201.581,127.815 C206.057,135.911 216.086,152.872 231.076,171.632 C250.313,195.706 281.918,227.808 323.241,244.024 L330.511,246.876 L326.249,240.332 z M128.893,291.687 C131.453,302.101 133.89,310.343 135.362,315.072 C134.856,321.712 134.714,328.301 134.937,334.816 C122.275,332.625 111.826,318.871 111.826,303.364 C111.826,292.592 117.418,283.913 126.138,279.743 C126.898,283.279 127.676,286.663 128.446,289.861 C128.441,289.964 128.438,290.058 128.438,290.124 C128.44,290.601 128.611,291.13 128.893,291.687 z M531.46,188.811 C528.139,174.558 514.514,124.929 477.877,80.484 C460.081,58.896 439.495,41.877 416.688,29.9 C389.704,15.729 359.419,8.544 326.675,8.544 C310.374,8.544 293.192,10.336 275.606,13.872 C226.354,23.774 195.532,59.779 187.896,69.626 C177.635,70.521 147.981,77.538 124.235,126.883 C106.863,158.217 98.473,198.656 99.116,247.524 C99.348,265.133 100.742,283.827 103.327,303.598 C103.349,307.293 103.874,311.028 104.891,314.705 C106.943,328.388 109.463,341.98 112.291,355.258 C110.169,351.054 108.327,347.478 107.16,345.228 C106.285,343.508 85.628,302.881 76.258,287.064 C76.12,286.831 75.975,286.611 75.831,286.387 C72.361,280.972 67.195,277.994 61.194,277.994 C54.037,277.994 46.791,282.293 42.285,289.214 C37.765,296.156 37.003,304.276 40.195,311.491 C43.674,319.354 49.193,329.804 56.63,342.617 C56.726,342.783 56.818,342.945 56.915,343.111 C56.777,343.135 56.641,343.17 56.504,343.195 C46.366,345.09 36.667,352.482 32.54,361.666 C22.317,366.228 13.84,376.836 14.97,388.72 C9.097,394.33 6.666,402.074 8.736,409.33 C11.653,419.558 19.073,426.859 26.002,430.896 C27.686,448.783 40.849,467.021 60.891,470.015 C60.368,470.693 59.992,471.482 59.796,472.332 C59.434,473.906 59.721,475.56 60.593,476.92 L63.375,481.254 L60.613,482.877 C57.78,484.545 56.815,488.181 58.45,491.033 C62.247,497.656 96.003,556.072 111.811,567.658 C114.356,569.525 118.923,571.177 124.717,572.635 C145.769,577.927 183.056,580.631 198.778,581.58 L203.97,626.111 C205.197,626.635 206.434,627.14 207.672,627.644 C209.421,628.355 211.179,629.047 212.947,629.718 L206.638,575.588 C206.497,574.377 205.504,573.445 204.287,573.381 C183.204,572.258 126.393,567.81 116.836,560.802 C103.742,551.205 73.553,500.086 67.063,488.945 L120.814,457.33 L151.706,504.781 C152.167,505.49 152.956,505.918 153.801,505.918 C153.805,505.918 153.808,505.918 153.811,505.918 L188.373,505.779 C189.32,505.775 190.183,505.236 190.604,504.388 C198.411,488.64 210.522,490.215 211.018,490.285 C211.294,490.326 211.575,490.326 211.851,490.277 L240.001,485.246 C242.201,486.207 244.427,487.117 246.665,487.994 L242.188,503.779 C241.982,504.498 242.341,505.26 243.026,505.56 L260.861,513.404 L242.822,529.687 C242.224,530.228 242.159,531.146 242.678,531.763 L318.933,622.781 C319.226,623.133 319.651,623.318 320.083,623.318 C320.088,623.318 320.094,623.318 320.099,623.318 C320.943,623.367 321.602,622.648 321.602,621.818 C321.602,621.551 321.531,621.297 321.407,621.08 L317.029,609.306 L317.137,609.041 L382.979,530.492 C383.498,529.873 383.435,528.957 382.835,528.416 L364.796,512.131 L382.631,504.289 C383.316,503.986 383.675,503.226 383.471,502.506 L380.001,490.277 C384.135,488.812 388.212,487.209 392.226,485.47 L423.893,494.75 C424.044,494.795 424.196,494.82 424.348,494.836 L424.339,494.927 L424.771,494.855 C426.044,494.914 433.503,495.636 435.539,504.437 C437.845,514.429 442.229,562.775 445.452,600.935 C447.046,599.824 448.626,598.693 450.191,597.545 C451.297,596.734 452.395,595.916 453.486,595.088 C451.283,569.238 448.632,539.845 446.472,521.01 C450.087,514.592 453.34,507.623 456.205,500.699 L455.166,517.322 C454.994,520.068 456.713,522.58 459.336,523.414 C461.964,524.252 464.813,523.191 466.259,520.849 C467.264,519.224 491.104,480.32 511.343,420.095 C521.676,389.347 532.019,349.683 536.392,305.492 C539.935,269.687 539.563,230.913 532.058,191.476 C531.9,190.646 531.704,189.774 531.46,188.811" fill="#1A1919"/>
    <path d="M422.278,540.738 C422.338,539.406 421.34,538.281 420.028,538.15 C419.982,538.146 419.938,538.133 419.892,538.131 C418.536,538.051 417.345,539.136 417.283,540.517 L413.771,619.765 C415.489,618.908 417.196,618.033 418.892,617.138 L422.278,540.738" fill="#1A1919"/>
    <path d="M323.459,632.773 C323.459,628.859 320.287,625.689 316.375,625.689 C312.463,625.689 309.291,628.859 309.291,632.773 C309.291,636.685 312.463,639.857 316.375,639.857 C320.287,639.857 323.459,636.685 323.459,632.773" fill="#1A1919"/>
    <path d="M80.15,371.968 C80,372.828 79.889,373.689 79.703,374.541 C79.602,375.09 79.491,375.644 79.377,376.189 C78.02,375.986 76.658,375.814 75.285,375.705 C73.594,375.568 71.891,375.494 70.156,375.611 C71.755,376.295 73.386,376.789 75.027,377.218 C76.669,377.648 78.323,378.006 79.989,378.295 L80.91,378.455 L81.126,377.549 C81.346,376.621 81.486,375.736 81.594,374.822 C81.671,373.908 81.754,372.996 81.727,372.076 C81.719,371.156 81.634,370.236 81.48,369.328 C81.301,368.424 81.069,367.517 80.656,366.697 C80.625,367.617 80.585,368.492 80.482,369.369 C80.401,370.244 80.275,371.107 80.15,371.968" fill="#1A1919"/>
    <path d="M232.869,269.579 C255.147,269.579 273.271,287.702 273.271,309.978 C273.271,332.254 255.147,350.379 232.869,350.379 C210.594,350.379 192.471,332.254 192.471,309.978 C192.471,287.702 210.594,269.579 232.869,269.579 z M183.652,295.806 L189.953,298.607 C188.99,302.238 188.471,306.048 188.471,309.978 C188.471,334.461 208.388,354.379 232.869,354.379 C257.353,354.379 277.271,334.461 277.271,309.978 C277.271,285.496 257.353,265.579 232.869,265.579 C223.129,265.579 214.117,268.74 206.789,274.079 L199.166,267.218 C198.55,266.663 197.601,266.714 197.048,267.329 C196.493,267.946 196.543,268.894 197.159,269.448 L204.387,275.953 C201.638,278.258 199.174,280.889 197.05,283.786 L189.306,278.526 C188.621,278.062 187.688,278.239 187.223,278.924 C186.757,279.61 186.935,280.542 187.62,281.008 L195.361,286.266 C193.499,289.201 191.974,292.368 190.835,295.714 L184.871,293.064 C184.115,292.728 183.229,293.07 182.892,293.825 C182.555,294.582 182.896,295.469 183.652,295.806" fill="#1A1919"/>
    <path d="M213.606,321.121 C217.458,327.765 224.64,332.24 232.869,332.24 C245.162,332.24 255.127,322.267 255.127,309.976 C255.127,297.685 245.162,287.718 232.869,287.718 C222.648,287.718 214.041,294.613 211.429,304.003 L232.869,309.979 L213.606,321.121" fill="#1A1919"/>
    <path d="M296.714,390.834 C296.86,390.834 297.009,390.82 297.158,390.795 C298.517,390.551 299.421,389.25 299.178,387.892 C297.769,380.027 296.889,367.467 299.348,364.162 C301.455,361.33 310.366,362.924 315.726,364.894 C317.021,365.369 318.457,364.707 318.936,363.412 C319.412,362.117 318.75,360.679 317.455,360.203 C315.736,359.568 300.517,354.209 295.336,361.177 C290.708,367.396 293.625,385.258 294.256,388.775 C294.474,389.984 295.526,390.834 296.714,390.834" fill="#1A1919"/>
    <path d="M339.189,435.135 C325.951,426.299 305.017,426.724 292.764,436.209 C291.744,437 290.777,437.845 289.887,438.76 C288.924,439.75 288.946,441.334 289.936,442.295 C290.422,442.767 291.051,443.004 291.679,443.004 C292.33,443.004 292.98,442.75 293.471,442.246 C293.981,441.72 294.529,441.228 295.096,440.752 C305.963,431.605 326.54,431.441 338.018,440.455 C338.552,440.875 339.074,441.306 339.567,441.765 C340.577,442.709 342.161,442.652 343.101,441.64 C344.042,440.631 343.986,439.049 342.976,438.107 C341.807,437.017 340.534,436.031 339.189,435.135" fill="#1A1919"/>
    <path d="M205.2,234.765 L277.405,261.267 C277.405,261.267 255.612,242.277 238.366,237.605 C221.119,232.932 205.2,234.765 205.2,234.765" fill="#1A1919"/>
    <path d="M399.891,269.579 C422.166,269.579 440.289,287.702 440.289,309.978 C440.289,332.254 422.166,350.379 399.891,350.379 C377.612,350.379 359.488,332.254 359.488,309.978 C359.488,287.702 377.612,269.579 399.891,269.579 z M399.891,354.379 C424.372,354.379 444.289,334.461 444.289,309.978 C444.289,306.048 443.77,302.238 442.807,298.607 L449.107,295.806 C449.864,295.469 450.205,294.582 449.869,293.825 C449.532,293.069 448.647,292.726 447.889,293.064 L441.925,295.714 C440.786,292.368 439.261,289.201 437.398,286.266 L445.14,281.008 C445.825,280.542 446.003,279.61 445.538,278.924 C445.07,278.238 444.138,278.062 443.454,278.526 L435.71,283.786 C433.586,280.889 431.122,278.258 428.374,275.953 L435.602,269.448 C436.217,268.894 436.267,267.946 435.713,267.329 C435.156,266.713 434.21,266.665 433.594,267.218 L425.971,274.078 C418.643,268.739 409.631,265.579 399.891,265.579 C375.407,265.579 355.488,285.496 355.488,309.978 C355.488,334.461 375.407,354.379 399.891,354.379" fill="#1A1919"/>
    <path d="M380.627,321.121 C384.479,327.765 391.66,332.24 399.891,332.24 C412.182,332.24 422.148,322.267 422.148,309.976 C422.148,297.685 412.182,287.718 399.891,287.718 C389.668,287.718 381.062,294.613 378.45,304.003 L399.891,309.979 L380.627,321.121" fill="#1A1919"/>
    <path d="M348.201,290.497 C359.084,278.409 375.814,269.207 395.312,264.586 C403.979,262.531 412.764,261.489 421.421,261.489 C451.544,261.489 475.766,274.117 481.692,292.913 C484.417,301.55 483.148,310.887 478.023,319.915 C468.804,336.158 448.648,349.33 424.107,355.148 C415.44,357.203 406.656,358.246 397.999,358.246 C367.876,358.246 343.653,345.617 337.726,326.82 C334.006,315.031 337.726,302.131 348.201,290.497 z M397.999,361.246 C406.889,361.246 415.906,360.176 424.799,358.068 C450.137,352.06 471.009,338.351 480.633,321.396 C486.179,311.624 487.535,301.463 484.554,292.011 C478.231,271.961 452.86,258.489 421.421,258.489 C412.53,258.489 403.514,259.559 394.62,261.666 C374.535,266.428 357.259,275.953 345.972,288.489 C334.757,300.946 330.813,314.879 334.864,327.722 C341.188,347.773 366.56,361.246 397.999,361.246" fill="#1A1919"/>
    <path d="M149.387,292.913 C155.313,274.117 179.535,261.489 209.658,261.489 C218.316,261.489 227.101,262.531 235.768,264.586 C255.265,269.207 271.995,278.409 282.878,290.497 C293.354,302.131 297.073,315.031 293.354,326.82 C287.426,345.617 263.204,358.246 233.08,358.246 C224.423,358.246 215.639,357.203 206.973,355.148 C182.432,349.33 162.275,336.158 153.056,319.915 C147.932,310.887 146.663,301.55 149.387,292.913 z M150.446,321.396 C160.07,338.351 180.943,352.06 206.28,358.068 C215.174,360.176 224.19,361.246 233.08,361.246 C264.52,361.246 289.891,347.773 296.215,327.722 C300.267,314.879 296.322,300.946 285.108,288.489 C273.821,275.953 256.544,266.428 236.46,261.666 C227.565,259.559 218.549,258.489 209.658,258.489 C178.22,258.489 152.849,271.961 146.525,292.011 C143.545,301.463 144.9,311.624 150.446,321.396" fill="#1A1919"/>
  </g>
</svg>
